<?xml version="1.0" encoding="UTF-8" standalone="no"?><!DOCTYPE svg PUBLIC "-//W3C//DTD SVG 1.1//EN" "http://www.w3.org/Graphics/SVG/1.1/DTD/svg11.dtd"><svg width="100%" height="100%" viewBox="0 0 447 130" version="1.1" xmlns="http://www.w3.org/2000/svg" xmlns:xlink="http://www.w3.org/1999/xlink" xml:space="preserve" xmlns:serif="http://www.serif.com/" style="fill-rule:evenodd;clip-rule:evenodd;stroke-linejoin:round;stroke-miterlimit:1.5;"><g><g><g><path d="M199.773,41.037l40.227,-0" style="fill:none;stroke:#000;stroke-width:0.83px;"/></g><g><path d="M199,41.037l40.227,-0" style="fill:none;stroke:#000;stroke-width:0.83px;"/></g><path d="M26,41.031l24.661,0" style="fill:none;stroke:#000;stroke-width:0.83px;stroke-linecap:square;stroke-linejoin:miter;stroke-miterlimit:2;"/><path d="M50.397,41.031c0.65,-12.782 4.069,-23.031 8.175,-23.031c4.106,0 7.526,10.249 8.174,23.031c0.649,12.782 -1.474,23.032 -4.283,23.032c-2.808,-0 -4.93,-10.25 -4.282,-23.032c0.651,-12.782 4.07,-23.031 8.176,-23.031c4.106,0 7.527,10.249 8.176,23.031c0.648,12.782 -1.476,23.032 -4.283,23.032c-2.81,-0 -4.932,-10.25 -4.284,-23.032c0.65,-12.782 4.071,-23.031 8.178,-23.031c4.104,0 7.525,10.249 8.174,23.031c0.648,12.782 -1.474,23.032 -4.283,23.032c-2.808,-0 -4.932,-10.25 -4.284,-23.032c0.652,-12.782 4.071,-23.031 8.178,-23.031c4.106,0 7.525,10.249 8.174,23.031c0.65,12.782 -1.474,23.032 -4.282,23.032c-2.809,-0 -4.932,-10.25 -4.283,-23.032c0.65,-12.782 4.071,-23.031 8.176,-23.031c4.106,0 7.527,10.249 8.175,23.031c0.649,12.782 -1.475,23.032 -4.283,23.032c-2.808,-0 -4.932,-10.25 -4.283,-23.032c0.65,-12.782 4.071,-23.031 8.177,-23.031c4.105,0 7.526,10.249 8.174,23.031c0.65,12.782 -1.474,23.032 -4.283,23.032c-2.808,-0 -4.932,-10.25 -4.282,-23.032c0.65,-12.782 4.07,-23.031 8.176,-23.031c4.106,0 7.526,10.249 8.174,23.031c0.65,12.782 -1.474,23.032 -4.282,23.032c-2.809,-0 -4.931,-10.25 -4.283,-23.032c0.65,-12.782 4.071,-23.031 8.176,-23.031c4.106,0 7.527,10.249 8.176,23.031c0.648,12.782 -1.474,23.032 -4.284,23.032c-2.807,-0 -4.931,-10.25 -4.281,-23.032c0.648,-12.782 4.069,-23.031 8.175,-23.031c4.105,0 7.526,10.249 8.176,23.031c0.649,12.782 -1.475,23.032 -4.283,23.032c-2.809,-0 -4.933,-10.25 -4.283,-23.032c0.65,-12.782 4.069,-23.031 8.175,-23.031c4.107,0 7.528,10.249 8.176,23.031c0.649,12.782 -1.476,23.032 -4.283,23.032c-2.808,-0 -4.932,-10.25 -4.283,-23.032c0.65,-12.782 4.071,-23.031 8.175,-23.031c4.106,0 7.527,10.249 8.176,23.031c0.648,12.782 -1.474,23.032 -4.283,23.032c-2.808,-0 -4.932,-10.25 -4.283,-23.032c0.65,-12.782 4.071,-23.031 8.177,-23.031c4.106,0 7.527,10.249 8.175,23.031c0.649,12.782 -1.475,23.032 -4.283,23.032c-2.809,-0 -4.931,-10.25 -4.283,-23.032c0.65,-12.782 4.07,-23.031 8.177,-23.031c4.105,0 7.526,10.249 8.174,23.031c0.649,12.782 -1.474,23.032 -4.283,23.032c-2.807,-0 -4.931,-10.25 -4.283,-23.032c0.65,-12.782 4.071,-23.031 8.177,-23.031c4.105,0 7.526,10.249 8.174,23.031c0.649,12.782 -1.474,23.032 -4.283,23.032c-2.807,-0 -4.93,-10.25 -4.281,-23.032c0.65,-12.782 4.069,-23.031 8.175,-23.031c4.106,0 7.527,10.249 8.176,23.031c0.648,12.782 -1.476,23.032 -4.283,23.032c-2.809,-0 -4.932,-10.25 -4.283,-23.032c0.65,-12.782 4.071,-23.031 8.177,-23.031c4.104,0 7.525,10.249 8.174,23.031c0.648,12.782 -1.474,23.032 -4.283,23.032c-2.808,-0 -4.932,-10.25 -4.283,-23.032c0.65,-12.782 4.071,-23.031 8.177,-23.031c4.106,0 7.525,10.249 8.174,23.031c0.65,12.782 -1.474,23.032 -4.282,23.032c-2.809,-0 -4.931,-10.25 -4.283,-23.032c0.65,-12.782 4.071,-23.031 8.176,-23.031c4.106,0 7.527,10.249 8.175,23.031" style="fill:none;stroke:#000;stroke-width:0.83px;stroke-linecap:square;stroke-linejoin:miter;stroke-miterlimit:2;"/></g><path d="M26.143,64.238l0,-64.238l-26.143,0l0,88.14l417,0l-0,-23.902l-390.857,-0Z" style="fill:#e8e8e8;"/><path d="M26.143,64.238l0,-64.238l-26.143,0l0,88.14l417,0l0,-23.902l-390.857,-0Zm-1,-0l0,1l390.857,-0c-0,-0 -0,21.902 -0,21.902c-21.807,0 -393.193,0 -415,0c0,0 0,-86.14 0,-86.14c-0,-0 24.143,0 24.143,0c0,0 0,63.238 0,63.238Z"/><circle cx="263" cy="41" r="23" style="fill:url(#_Radial1);"/><path d="M263,18c12.694,0 23,10.306 23,23c-0,12.694 -10.306,23 -23,23c-12.694,0 -23,-10.306 -23,-23c0,-12.694 10.306,-23 23,-23Zm-0,1.25c12.004,0 21.75,9.746 21.75,21.75c-0,12.004 -9.746,21.75 -21.75,21.75c-12.004,-0 -21.75,-9.746 -21.75,-21.75c0,-12.004 9.746,-21.75 21.75,-21.75Z"/><path d="M208,65l0,37" style="fill:none;stroke:#000;stroke-width:1.25px;stroke-linecap:square;stroke-linejoin:miter;"/><path d="M263,65l0,37" style="fill:none;stroke:#000;stroke-width:1.25px;stroke-linecap:square;stroke-linejoin:miter;"/><path d="M424.6,68.7l7.4,-3.7l-7.4,-3.7l-0,7.4Z"/><path d="M426.08,65l-400.08,0" style="fill:none;stroke:#000;stroke-width:1.67px;stroke-linecap:square;stroke-linejoin:miter;"/><text x="434.816px" y="68.873px" style="font-family:'CMUSerif-Italic', 'CMU Serif';font-weight:500;font-style:italic;font-size:22.337px;">x</text><text x="198.749px" y="124.747px" style="font-family:'CMUSerif-Roman', 'CMU Serif';font-weight:500;font-size:22.337px;">O</text><g transform="matrix(1,0,0,1,-344.184,-2608.25)"><text x="590px" y="2732px" style="font-family:'CMUSerif-Italic', 'CMU Serif';font-weight:500;font-style:italic;font-size:22.337px;">x</text><text x="600.342px" y="2732px" style="font-family:'CMUSerif-Roman', 'CMU Serif';font-weight:500;font-size:22.337px;">(</text><text x="609.009px" y="2732px" style="font-family:'CMUSerif-Italic', 'CMU Serif';font-weight:500;font-style:italic;font-size:22.337px;">t</text><text x="616.424px" y="2732px" style="font-family:'CMUSerif-Roman', 'CMU Serif';font-weight:500;font-size:22.337px;">)</text></g></g><defs><radialGradient id="_Radial1" cx="0" cy="0" r="1" gradientUnits="userSpaceOnUse" gradientTransform="matrix(-25,-14,14,-25,265,41)"><stop offset="0" style="stop-color:#fff;stop-opacity:1"/><stop offset="1" style="stop-color:#a6a6a6;stop-opacity:1"/></radialGradient></defs></svg>